<svg xmlns="http://www.w3.org/2000/svg" viewBox="0 0 64 64" role="img" aria-label="Twitter App logo">
  <rect width="64" height="64" rx="16" fill="#1DA1F2"/>
  <path d="M46.8 22.2c.03.32.03.65.03.97 0 9.95-7.58 21.43-21.43 21.43-4.27 0-8.25-1.23-11.6-3.38.6.07 1.17.1 1.8.1 3.52 0 6.77-1.2 9.35-3.22-3.3-.07-6.08-2.23-7.03-5.22.47.07.93.13 1.43.13.68 0 1.37-.1 2-.27-3.45-.7-6.05-3.73-6.05-7.38v-.1c1.02.57 2.18.92 3.42.97-2.03-1.35-3.35-3.65-3.35-6.25 0-1.38.37-2.65 1.02-3.75 3.72 4.57 9.3 7.57 15.58 7.9-.12-.55-.2-1.13-.2-1.72 0-4.17 3.38-7.55 7.55-7.55 2.17 0 4.13.92 5.5 2.38 1.7-.33 3.32-.95 4.77-1.82-.57 1.77-1.77 3.25-3.33 4.18 1.52-.17 2.98-.58 4.33-1.17-1.02 1.5-2.3 2.82-3.78 3.88z" fill="white"/>
</svg>
